<svg version="1.1" xmlns="http://www.w3.org/2000/svg" xmlns:xlink="http://www.w3.org/1999/xlink" width="34.78297" height="31.32291" viewBox="0,0,34.78297,31.32291"><g transform="translate(-301.4338,-164.26047)"><g data-paper-data="{&quot;isPaintingLayer&quot;:true}" fill="#656565" fill-rule="nonzero" stroke="#656565" stroke-linejoin="miter" stroke-miterlimit="10" stroke-dasharray="" stroke-dashoffset="0" style="mix-blend-mode: normal"><g><path d="M304.64413,176.04927l7.57847,-1.26308" stroke-width="0.5" stroke-linecap="round"/><path d="M304.01259,176.78606l4.68392,3.63135" stroke-width="0" stroke-linecap="round"/><path d="M309.4333,182.15415l-1.42096,-2.84193" stroke-width="0" stroke-linecap="round"/><path d="M309.11753,181.52261l-7.68373,-5.89437" stroke-width="0" stroke-linecap="round"/><path d="M304.48625,177.25972l5.68385,5.47334l2.68404,2.52615" stroke-width="0.5" stroke-linecap="round"/><path d="M306.90715,178.36491l1.94725,2.63142" stroke-width="0.5" stroke-linecap="round"/><path d="M311.59106,182.78568l-0.05263,9.20995" stroke-width="0.5" stroke-linecap="round"/><path d="M313.48568,184.25928l-1.6841,-0.31577l-1.73674,9.99937" stroke-width="0.5" stroke-linecap="round"/><path d="M312.06471,186.25915l-0.52628,-2.73667l2.89456,-0.94731" stroke-width="0.5" stroke-linecap="round"/><path d="M312.32786,183.78562l-1.36834,8.42052" stroke-width="0.5" stroke-linecap="round"/><path d="M311.80158,183.3646l-1.47359,8.99943" stroke-width="0.5" stroke-linecap="round"/><path d="M319.64319,190.46941l-8.84155,4.57866" stroke-width="0.5" stroke-linecap="round"/><path d="M319.69447,190.39833c0,0 -0.04788,-0.0399 -0.07591,-0.10377c-0.75816,0.3461 -1.59091,0.6125 -2.16688,1.19368c0,0 -0.0111,0.0111 -0.03051,0.02495c-0.75061,0.98714 -2.63227,1.79124 -3.67597,1.92378l-0.18048,0.11154c-0.18684,0.06183 -0.90824,0.4158 -1.2384,0.51304l-0.12219,0.14664l-0.07959,-0.06633c-0.30469,0.32134 -0.66402,0.46188 -0.99329,0.46253c-0.00826,0.02618 -0.01574,0.05316 -0.02238,0.08097c0.0534,0.03473 0.10064,0.09616 0.10064,0.20483c0,0.25 -0.25,0.25 -0.25,0.25h-0.10525c-0.03688,-0.0012 -0.07271,-0.00332 -0.10752,-0.00638c-0.0448,0.0673 -0.12134,0.11164 -0.20825,0.11164c-0.01661,0 -0.03284,-0.00162 -0.04854,-0.00471c-0.14362,0.1336 -0.31197,0.00734 -0.31197,0.00734c-0.07017,-0.05263 -0.14034,-0.10526 -0.21051,-0.15789l-0.18466,-0.18111c0,0 -0.17678,-0.17678 0,-0.35355c0.01256,-0.01255 0.02511,-0.02333 0.0376,-0.03251c-0.03629,-0.04275 -0.07987,-0.11628 -0.05819,-0.20738c-0.00415,-0.07407 0.01743,-0.17646 0.14833,-0.23282c-0.1146,-0.02279 -0.20097,-0.1239 -0.20097,-0.24519c0,-0.02969 0.00518,-0.05817 0.01468,-0.08459l0.10341,-0.31024l0.04271,0.01423l0.01108,-0.02217c0.06363,-0.35632 0.17046,-1.07404 0.37928,-1.5952c-0.01241,-0.16744 -0.00379,-0.35952 0.03185,-0.57326l0.0021,-0.00369l-0.00135,-0.00026l0.05172,-0.2586c0.02098,-0.11685 0.12316,-0.20552 0.24605,-0.20552c0.08965,0 0.16827,0.04718 0.2124,0.11807c0.00263,-1.29031 0.67413,-3.02501 1.31096,-4.43488c0.04456,-0.45156 0.06863,-0.88238 0.06863,-1.27493c0,0 0,-0.25 0.25,-0.25c0.25,0 0.25,0.25 0.25,0.25c0,0.02174 -0.00007,0.0436 -0.00021,0.06558c0.05462,-0.11311 0.10668,-0.22055 0.15547,-0.32153c-1.64612,-1.08286 -3.23724,-2.92409 -3.96841,-3.90548c-0.14348,-0.19258 -0.50806,-0.5474 -0.86145,-0.90878c-0.01578,0.00313 -0.0321,0.00475 -0.0488,0.00475h-0.26314v-0.16128c-0.11115,-0.03049 -0.21441,-0.07955 -0.29586,-0.14944c-0.03791,0.08981 -0.12681,0.15284 -0.23042,0.15284c-0.05719,0 -0.10989,-0.0192 -0.15202,-0.05151l-0.20849,-0.15636l0.00734,-0.00979l-0.03134,-0.01069c-0.26193,-0.32391 -0.41634,-0.65622 -0.53454,-0.99559c-0.02711,0.00725 -0.0562,0.00956 -0.08737,0.00642c-0.31201,-0.03143 -0.81462,-0.61206 -1.1002,-1.1746c-0.06702,-0.03169 -0.11768,-0.09229 -0.13591,-0.16571l-0.15218,0.01886c0,0 -0.0786,-0.0262 -0.13022,-0.09368c-0.02557,0.03776 -0.067,0.07179 -0.13269,0.09368c-0.23717,0.07906 -0.31623,-0.15812 -0.31623,-0.15812l-0.04757,-0.14409c-0.12925,-0.35268 -0.06867,-0.52301 -0.07051,-0.88228c0,0 0,-0.20631 0.18742,-0.24409c0.07287,-0.05853 0.16784,-0.05853 0.16784,-0.05853c0.31971,0 0.63815,-0.00399 0.95577,-0.0107c0.0621,-0.07468 0.16096,-0.09116 0.16096,-0.09116l0.33625,-0.05518c0.46812,0 0.92012,-0.05348 1.38896,-0.05348c1.96729,0 3.83962,-1.33743 5.73648,-1.36834c0,0 0.13008,0.00001 0.20258,0.09384c0.40251,-0.11065 0.80178,-0.20325 1.20169,-0.22045c0.24677,-0.33613 0.52279,-0.66121 0.78325,-0.98778c0.32887,-0.83503 0.79822,-1.55682 1.17612,-2.45714c0,0 0.01176,-0.02743 0.03606,-0.06902l0.0692,-0.24676c0.73654,-1.71816 1.62261,-3.60845 2.72077,-5.10162c0,0 0.02201,-0.02934 0.06278,-0.07018c-0.0015,-0.01938 -0.00226,-0.03896 -0.00226,-0.05873c0,-0.41422 0.33578,-0.75 0.75,-0.75c0.41422,0 0.75,0.33578 0.75,0.75c0,0.19657 -0.07563,0.37548 -0.19937,0.50922c0.00995,0.19589 -0.06962,0.36762 -0.12055,0.45613c0.37254,0.19573 0.37254,0.66612 0.37254,0.66612c-0.00607,0.63593 -0.07853,1.12539 -0.23299,1.60726c1.02587,0.31154 1.77248,1.26484 1.77248,2.39249c0,0.13247 -0.0103,0.26253 -0.03015,0.38943c0.29717,0.51164 0.55683,1.04784 0.74331,1.57362c0.99154,0.89566 1.79266,1.85586 2.13314,2.53452c1.34035,0.37777 2.58766,0.72157 4.08724,0.26186c0.69011,-0.21156 1.91564,-0.62339 2.60526,0c2.76441,2.49893 -1.06762,6.76127 -4.42339,8.11419c0.53966,1.52709 0.81095,3.54227 0.82432,5.22958c0.30241,0.41338 0.48092,0.9231 0.48092,1.47452c0,1.38071 -1.11929,2.5 -2.5,2.5c-0.93791,0 -1.75517,-0.51649 -2.18292,-1.28055c-1.41467,-0.36647 -3.35589,-0.47428 -4.39758,-1.29054zM322.9238,190.54851c-0.64688,-0.16089 -1.66598,-0.32076 -2.72406,-0.55343c-0.04095,0.02451 -0.08247,0.04837 -0.12448,0.07169c0.77408,0.63563 2.46974,0.80676 3.74255,1.05871c-0.29807,-0.27975 -0.59252,-0.50198 -0.89401,-0.57697zM315.14601,192.49258c0.06032,-0.03473 0.11996,-0.07092 0.17899,-0.1084c-0.0233,-0.01212 -0.04668,-0.02958 -0.06943,-0.05385c-0.03458,0.05668 -0.07079,0.11118 -0.10955,0.16225zM311.2102,192.25445c-0.00552,0.00933 -0.01108,0.01847 -0.01667,0.02741c0.00874,-0.00559 0.01746,-0.01119 0.02617,-0.01677c-0.00318,-0.00353 -0.00635,-0.00708 -0.0095,-0.01064zM310.82675,191.32522c0.00085,0.00345 0.00169,0.0069 0.0025,0.01035c-0.00049,-0.00362 -0.00096,-0.00725 -0.00143,-0.01088zM310.8574,191.50714c0.00033,0.00016 0.00066,0.00033 0.00099,0.00048c-0.00061,-0.00292 -0.00121,-0.00584 -0.0018,-0.00877c0.00028,0.00277 0.00055,0.00552 0.00081,0.00829zM304.6597,177.04485l-0.02111,-0.01267l0.00979,0.02917c0.00365,-0.0058 0.00743,-0.01129 0.01132,-0.01649zM304.7722,176.4791c0.10231,-0.01427 0.19712,-0.0131 0.28,0.00375c0.01216,-0.01093 0.02439,-0.02123 0.03667,-0.03089c-0.10699,0.00163 -0.2141,0.00292 -0.32134,0.0038zM306.94088,178.48906l-0.18851,-0.18851c-0.01582,0.01467 -0.03305,0.02949 -0.05176,0.0445l-0.06153,0.07882c0.01609,0.04982 0.03289,0.09946 0.05067,0.14887l0.24384,0.08128l-0.02147,0.06438l0.01841,0.01104l-0.01566,0.02609c0.01563,0.00497 0.03097,0.01017 0.04606,0.0156l0.0135,-0.00825c0.00398,0.00586 0.00791,0.01174 0.01179,0.01766c0.04013,0.01541 0.07845,0.03248 0.11548,0.05109c-0.02803,-0.09246 -0.05083,-0.18719 -0.06809,-0.28384c-0.03522,-0.01257 -0.0668,-0.03282 -0.09271,-0.05873zM305.54268,177.39664c0.00079,0.00084 0.00159,0.0017 0.0024,0.00254c0.00013,-0.00134 0.00027,-0.00268 0.00041,-0.00402c-0.00025,0.00027 -0.00051,0.00052 -0.00076,0.00079zM311.40324,175.17774c-0.00347,-0.01359 -0.00603,-0.02825 -0.00749,-0.04404c-0.11106,0.03257 -0.22237,0.0673 -0.33391,0.10361c0.11264,-0.02211 0.22647,-0.04188 0.34141,-0.05957z" stroke-width="0.5" stroke-linecap="butt"/><path d="M319.11772,189.5221l5.26283,1.47359" stroke-width="0.5" stroke-linecap="round"/><path d="M319.95977,189.99576l4.21026,1.31571" stroke-width="0.5" stroke-linecap="round"/><path d="M320.17028,190.2589l8.89418,4.68392" stroke-width="0.5" stroke-linecap="round"/><path d="M326.80145,186.04864l1.73673,-2.68404l-0.26314,3.31558" stroke-width="0.5" stroke-linecap="round"/><path d="M328.43293,184.57505l1.42096,9.15732" stroke-width="0.5" stroke-linecap="round"/><path d="M327.38036,181.891l1.42097,9.52572" stroke-width="0.5" stroke-linecap="round"/><path d="M328.27504,182.46991l-1.26308,7.21007" stroke-width="0.5" stroke-linecap="round"/><path d="M328.11716,183.3646l1.36834,9.84148" stroke-width="0.5" stroke-linecap="round"/><path d="M326.69619,192.6798l2.15776,1.36833l0.31577,-3.52609" stroke-width="0.5" stroke-linecap="round"/><path d="M326.90671,192.20614l2.26301,1.73673l-0.10525,-1.42096" stroke-width="0.5" stroke-linecap="round"/><path d="M327.48562,192.15352l1.73674,1.42096l-0.05263,0.94731l-6.31539,-3.36821" stroke-width="0.5" stroke-linecap="round"/><path d="M328.06453,191.99563l0.52628,1.6841v-2.52616" stroke-width="0.5" stroke-linecap="round"/><path d="M329.53132,195.19854c-0.00959,-0.00065 -0.01926,-0.00146 -0.02902,-0.00242l0.00472,0.033l-0.06177,0.00883l-0.00894,0.0626l-0.24635,-0.03519c-0.12309,-0.01558 -0.21828,-0.12069 -0.21828,-0.24801c0,-0.02302 0.00311,-0.04531 0.00894,-0.06647c-0.00826,-0.03495 -0.00826,-0.06068 -0.00826,-0.06068l0.01283,-0.3422c0.30324,-0.43757 0.40819,-0.60034 0.40819,-1.13139c0,0 0,-0.25 0.25,-0.25c0.25,0 0.25,0.25 0.25,0.25c0,0.08544 -0.0017,0.1654 -0.00596,0.24111c0.16676,0.0064 0.21747,0.18386 0.21747,0.18386c0.13263,0.47905 0.13824,0.81754 -0.09798,1.07684c-0.01117,0.18492 -0.18195,0.28321 -0.41821,0.28223c-0.01614,0.0073 -0.03265,0.01454 -0.04953,0.0217zM329.71259,194.36268c-0.00024,-0.00445 -0.00054,-0.00894 -0.0009,-0.01347c-0.00216,0.00403 -0.00435,0.00807 -0.00656,0.01211z" stroke-width="0.5" stroke-linecap="butt"/><path d="M328.11458,184.19638l1.39279,-1.82135" stroke-width="0.5" stroke-linecap="round"/><path d="M324.22188,174.23252l10.3567,1.64279" stroke-width="0.5" stroke-linecap="round"/><path d="M322.54339,174.58964l9.35674,1.21424l1.42851,3.32129l-2.39276,2.14276" stroke-width="0.5" stroke-linecap="round"/><path d="M324.65044,174.87535l5.78547,0.92853" stroke-width="0.5" stroke-linecap="round"/><path d="M324.25759,174.44679l4.60694,1.35709" stroke-width="0.5" stroke-linecap="round"/><path d="M323.40049,174.98248l6.49972,1.35708" stroke-width="0.5" stroke-linecap="round"/><path d="M330.50733,181.76791l-1.57137,1.3928" stroke-width="0.5" stroke-linecap="round"/><path d="M332.79294,178.26806l-0.53569,1.64279" stroke-width="0.5" stroke-linecap="round"/><path d="M333.15008,178.6609l-1.35709,1.17852" stroke-width="0.5" stroke-linecap="round"/><path d="M330.65052,178.62519l4.60695,-2.21419l-0.75031,1.78563l-5.99975,6.03546" stroke-width="0.5" stroke-linecap="round"/><path d="M335.36461,176.23243l-1.46422,-0.10714" stroke-width="0.5" stroke-linecap="round"/><path d="M332.36474,175.91102l1.17852,2.64275l1.24995,-1.6785" stroke-width="0.5" stroke-linecap="round"/><path d="M332.40045,175.55389l1.42851,2.67846" stroke-width="0.5" stroke-linecap="round"/><path d="M334.2218,178.08949l-1.28565,-2.14277" stroke-width="0.5" stroke-linecap="round"/><path d="M334.40036,176.62527l-1.9642,-0.39284" stroke-width="0.5" stroke-linecap="round"/><path d="M333.32898,175.8753l0.60712,0.46426l-0.71426,-0.07143l1.07139,1.24995" stroke-width="0.5" stroke-linecap="round"/><path d="M335.33164,176.50853c-0.18615,-0.05562 -0.33128,-0.145 -0.48852,-0.2209c-0.03947,0.00359 -0.08146,0.00834 -0.12605,0.01431c0,0 -0.24635,0.03079 -0.27874,-0.2145c-0.03366,-0.04609 -0.05386,-0.11096 -0.03085,-0.20021c0.00157,-0.00644 0.0034,-0.01278 0.00546,-0.01901c0.04293,-0.13568 0.1427,-0.16733 0.21673,-0.17064c0.00682,-0.00056 0.01372,-0.00085 0.02069,-0.00085c0.02776,0 0.05448,0.00453 0.07943,0.01288c0.07078,0.02182 0.13568,0.04847 0.1977,0.07729c0.18433,-0.00271 0.33745,0.01813 0.46185,0.05795c0.02762,-0.00527 0.0467,-0.00527 0.0467,-0.00527l0.2482,0.07322c0.57707,0.60252 0.1861,1.39203 -0.4196,1.71984c-0.12122,0.15375 -0.25646,0.30722 -0.43751,0.49078c0,0 -0.08483,0.08483 -0.19573,0.07819l-0.11675,0.08787c0,0 -0.2,0.15 -0.35,-0.05c-0.15,-0.2 0.05,-0.35 0.05,-0.35l0.13281,-0.09919c0.04349,-0.03348 0.08497,-0.06974 0.12525,-0.10765c-0.00061,-0.00716 -0.00093,-0.01439 -0.00093,-0.0217c0,-0.06264 0.02304,-0.11989 0.0611,-0.16376l0.21337,-0.24893l0.00464,0.00398l0.00963,-0.01928c0.28487,-0.23881 0.56966,-0.52531 0.6123,-0.7216z" stroke-width="0.5" stroke-linecap="butt"/><path d="M325.72169,174.91106l-5.28549,-9.89244" stroke-width="0.5" stroke-linecap="round"/><path d="M319.97193,165.69717l4.60695,8.82105" stroke-width="0.5" stroke-linecap="round"/><path d="M319.93622,166.94711l3.99996,6.96399l0.64283,1.53565" stroke-width="0.5" stroke-linecap="round"/><path d="M320.36478,165.41146l4.85693,9.35674" stroke-width="0.5" stroke-linecap="round"/><path d="M320.68619,167.05425l1.24995,2.71417" stroke-width="0.5" stroke-linecap="round"/><path d="M319.5791,164.91149l-5.92832,11.03524" stroke-width="0.5" stroke-linecap="round"/></g></g></g></svg>